<?xml version="1.0" encoding="iso-8859-1"?>
<!-- Generator: Adobe Illustrator 19.0.0, SVG Export Plug-In . SVG Version: 6.00 Build 0)  -->
<svg version="1.1" id="Capa_1" xmlns="http://www.w3.org/2000/svg" xmlns:xlink="http://www.w3.org/1999/xlink" x="0px" y="0px"
	 viewBox="0 0 512 512" style="enable-background:new 0 0 512 512;" xml:space="preserve">
<g>
	<g>
		<path d="M511.888,225.429C497.356,110.025,401.946,14.374,286.538,0.108C277.731-0.981,270,6.308,270,15.181v77.417
			C348.9,99.8,412.2,163.1,419.399,242h77.419C505.706,242,512.999,234.247,511.888,225.429z"/>
	</g>
</g>
<g>
	<g>
		<path d="M240,182c-49.629,0-90,40.371-90,90c0,49.629,40.371,90,90,90c49.629,0,90-40.371,90-90C330,222.371,289.629,182,240,182z
			 M240,332c-33.091,0-60-26.909-60-60s26.909-60,60-60s60,26.909,60,60S273.091,332,240,332z"/>
	</g>
</g>
<g>
	<g>
		<path d="M240,242c-16.538,0-30,13.462-30,30c0,16.538,13.462,30,30,30c16.538,0,30-13.462,30-30C270,255.462,256.538,242,240,242z
			"/>
	</g>
</g>
<g>
	<g>
		<path d="M405,272c-8.291,0-15-6.709-15-15c0-74.443-60.557-135-135-135c-8.291,0-15-6.709-15-15V32C107.452,32,0,139.452,0,272
			s107.452,240,240,240s240-107.452,240-240H405z M112.722,144.72c5.858-5.858,15.355-5.858,21.213,0
			c5.858,5.858,5.858,15.355,0,21.215c-5.858,5.858-15.355,5.858-21.213,0C106.862,160.075,106.862,150.577,112.722,144.72z M75,287
			c-8.284,0-15-6.716-15-15c0-8.286,6.716-15,15-15s15,6.714,15,15C90,280.284,83.284,287,75,287z M133.934,399.278
			c-5.858,5.858-15.355,5.858-21.213,0c-5.859-5.858-5.859-15.355,0-21.213c5.858-5.858,15.355-5.858,21.213,0
			C139.792,383.923,139.792,393.421,133.934,399.278z M240,452c-8.284,0-15-6.716-15-15c0-8.286,6.716-15,15-15s15,6.714,15,15
			C255,445.284,248.284,452,240,452z M240,392c-66.167,0-120-53.833-120-120s53.833-120,120-120s120,53.833,120,120
			S306.167,392,240,392z M367.278,399.278c-5.858,5.858-15.355,5.858-21.213,0c-5.858-5.858-5.858-15.355,0-21.213
			c5.858-5.858,15.355-5.858,21.213,0C373.138,383.923,373.138,393.421,367.278,399.278z"/>
	</g>
</g>
<g>
</g>
<g>
</g>
<g>
</g>
<g>
</g>
<g>
</g>
<g>
</g>
<g>
</g>
<g>
</g>
<g>
</g>
<g>
</g>
<g>
</g>
<g>
</g>
<g>
</g>
<g>
</g>
<g>
</g>
</svg>
