<svg height="512pt" viewBox="-91 0 512 512" width="512pt" xmlns="http://www.w3.org/2000/svg"><path d="m0 467v30c0 8.285156 6.714844 15 15 15h300c8.285156 0 15-6.714844 15-15v-30c0-24.8125-20.1875-45-45-45h-17.578125c1.664063-4.695312 2.578125-9.742188 2.578125-15 0-24.8125-20.1875-45-45-45h-15v-104.566406l24.640625-73.925782c21.675781-19.25 35.359375-47.308593 35.359375-78.507812 0-57.90625-47.121094-105-105-105-57.90625 0-105 47.117188-105 105 0 31.199219 13.683594 59.257812 35.359375 78.507812l24.640625 73.925782v104.566406h-15c-24.8125 0-45 20.1875-45 45 0 5.257812.914062 10.304688 2.578125 15h-17.578125c-24.8125 0-45 20.1875-45 45zm90-362c0-24.484375 11.796875-46.261719 30-59.960938v29.960938c0 8.285156 6.714844 15 15 15s15-6.714844 15-15v-43.492188c4.847656-.988281 9.863281-1.507812 15-1.507812s10.152344.519531 15 1.507812v43.492188c0 8.285156 6.714844 15 15 15s15-6.714844 15-15v-29.960938c18.203125 13.699219 30 35.476563 30 59.960938 0 41.355469-33.644531 75-75 75s-75-33.644531-75-75zm75 105c10.683594 0 20.996094-1.609375 30.71875-4.589844l-11.53125 34.589844h-38.375l-11.53125-34.589844c9.722656 2.980469 20.035156 4.589844 30.71875 4.589844zm-15 60h30v92h-30zm-60 137c0-8.269531 6.730469-15 15-15h120c8.269531 0 15 6.730469 15 15s-6.730469 15-15 15h-120c-8.269531 0-15-6.730469-15-15zm-60 60c0-8.269531 6.730469-15 15-15h240c8.269531 0 15 6.730469 15 15v15h-270zm0 0"/></svg>