<svg id="Layer_2" height="512" viewBox="0 0 64 64" width="512" xmlns="http://www.w3.org/2000/svg" data-name="Layer 2"><path d="m63.655 3.245a1 1 0 0 0 -.8-.234l-6.571.938-4.659-3.73a1 1 0 0 0 -.625-.219h-6a1 1 0 0 0 -.98 1.2l.9 4.475-3.627 3.618a.984.984 0 0 0 -.125.152l-2 3a1 1 0 0 0 .277 1.387l3 2a1 1 0 0 0 .555.168h3a1 1 0 0 0 .707-.293l1.622-1.622 4.475.9a1 1 0 0 0 .821-.2l4.726-3.785h4.649a1 1 0 0 0 1-1v-6a1 1 0 0 0 -.345-.755z"/><path d="m5.759 48.349a1 1 0 0 0 -1.207-.244l-4 2a1 1 0 0 0 -.481 1.266l1.981 4.952 1.986 6.951a1 1 0 0 0 .962.726h3a1 1 0 0 0 .832-.445l2-3a1 1 0 0 0 .138-.312l1-4a1 1 0 0 0 -.211-.894z"/><path d="m47.895 23.553-2-4a1 1 0 0 0 -.895-.553h-5a1 1 0 0 0 -.986.835l-.965 5.789-3.584 5.376h-5.465a1 1 0 0 0 -.868.5l-3.744 6.552-9.488.948a1 1 0 0 0 -.455.163l-6 4a1 1 0 0 0 -.045 1.637l3.6 2.7v2.5a1 1 0 0 0 .293.707l3 3a1 1 0 0 0 1.262.125l5.632-3.754 3.571.893a1 1 0 0 0 1.023-.346l3.737-4.671 9.582-.954a1 1 0 0 0 .607-.288l3-3a1 1 0 0 0 .242-1.023l-.891-2.672 4.884-13.675a1 1 0 0 0 -.047-.789zm-29.895 20.447h-1a1 1 0 0 1 0-2h1a1 1 0 0 1 0 2zm5 0h-1a1 1 0 0 1 0-2h1a1 1 0 0 1 0 2z"/><path d="m36 19h-2a1 1 0 0 1 0-2h2a1 1 0 0 1 0 2z"/><path d="m25 56h-2a1 1 0 0 1 0-2h2a1 1 0 0 1 0 2z"/></svg>